<?xml version="1.0" encoding="utf-8"?>
<svg width="524" height="120" viewBox="0 0 524 120" fill="none" xmlns="http://www.w3.org/2000/svg">
  <defs>
    <clipPath id="clip_path_1">
      <rect width="120" height="120" />
    </clipPath>
  </defs>
  <g>
    <g clip-path="url(#clip_path_1)">
      <g transform="translate(-0 0)">
        <g>
          <path d="M59.9616 29.1661L120 64.0724L120 34.9451L59.9232 0L0 34.9838L0 64.15L59.9616 29.1661Z" fill="#4ADE80" fill-rule="evenodd" />
          <path d="M110.397 58.565L120 52.8636L120 34.9838L59.9232 0L0 34.9838L0 52.9412L9.60307 58.565L59.9232 29.1661L110.397 58.565Z" fill="#4ADE80" fill-rule="evenodd" transform="translate(0 40.608)" />
          <path d="M40.2177 29.1661L55.4674 38.0478L80.5122 23.5036L40.1793 0L0 23.5036L25.0448 38.0478L40.2177 29.1661Z" fill="#4ADE80" fill-rule="evenodd" transform="translate(19.744 81.952)" />
        </g>
      </g>
      <g transform="translate(60 149.94)" />
    </g>
    <g transform="matrix(1 0 0 1 168 5)">
      <path d="M77.1588 85.5556C77.1588 97.7778 66.4635 108.472 51.1845 108.472C51.1845 108.472 0 108.472 0 108.472L0 91.6667C0 91.6667 45.073 91.6667 45.073 91.6667C52.7124 91.6667 57.2961 87.0833 57.2961 80.9722C57.2961 80.9722 57.2961 75.625 57.2961 75.625C57.2961 69.5139 55.0043 66.4583 51.1846 65.6945C51.1846 65.6945 19.8627 58.8195 19.8627 58.8195C9.16739 56.5278 0.763951 48.125 0.763951 35.1389C0.763951 35.1389 0.763951 24.4445 0.763951 24.4445C0.763951 12.2222 11.4592 1.52779 26.7382 1.52779C26.7382 1.52779 74.103 1.52779 74.103 1.52779L74.103 12.9861L68.7554 18.3333C68.7554 18.3333 32.8498 18.3333 32.8498 18.3333C25.2103 18.3333 20.6266 22.9167 20.6266 29.0278C20.6266 29.0278 20.6266 32.8472 20.6266 32.8472C20.6266 38.9583 22.9185 41.25 26.7382 42.0139C26.7382 42.0139 58.0601 48.8889 58.0601 48.8889C68.7554 51.1806 77.1588 59.5833 77.1588 73.3333C77.1588 73.3333 77.1588 85.5556 77.1588 85.5556C77.1588 85.5556 77.1588 85.5556 77.1588 85.5556ZM133.691 18.3333L133.691 108.472L113.828 108.472L113.828 18.3333L83.2704 18.3333L83.2704 1.52779L164.249 1.52779L164.249 12.9861L158.901 18.3333L133.691 18.3333L133.691 18.3333ZM232.24 1.09275e-05C247.519 1.09275e-05 257.451 9.93057 257.451 23.6806C257.451 23.6806 257.451 86.3195 257.451 86.3195C257.451 100.069 247.519 110 232.24 110C232.24 110 198.627 110 198.627 110C183.348 110 173.416 100.069 173.416 86.3195C173.416 86.3195 173.416 23.6806 173.416 23.6806C173.416 9.93055 183.348 0 198.627 0C198.627 0 232.24 0 232.24 0C232.24 0 232.24 1.09275e-05 232.24 1.09275e-05ZM203.974 16.8056C197.863 16.8056 193.279 21.3889 193.279 26.7361C193.279 26.7361 193.279 83.2639 193.279 83.2639C193.279 88.6111 197.863 93.1945 203.974 93.1945C203.974 93.1945 226.893 93.1945 226.893 93.1945C233.004 93.1945 237.588 88.6111 237.588 83.2639C237.588 83.2639 237.588 26.7361 237.588 26.7361C237.588 21.3889 233.004 16.8056 226.893 16.8056C226.893 16.8056 203.974 16.8056 203.974 16.8056C203.974 16.8056 203.974 16.8056 203.974 16.8056ZM310.163 42.7778L311.691 42.7778L333.082 1.52778L352.944 1.52778L352.944 9.93056L326.206 54.2361L356 100.069L356 108.472L336.137 108.472L311.691 65.6945L310.163 65.6945L285.717 108.472L265.854 108.472L265.854 100.069L295.648 54.2361L268.91 9.93056L268.91 1.52778L288.773 1.52778L310.163 42.7778Z" fill="#4ADE80" />
    </g>
  </g>
</svg>